<?xml version="1.0" encoding="UTF-8"?>
<svg width="92px" height="92px" viewBox="0 0 92 92" version="1.1" xmlns="http://www.w3.org/2000/svg" xmlns:xlink="http://www.w3.org/1999/xlink">
    <!-- Generator: Sketch 56.3 (81716) - https://sketch.com -->
    <title>Shape</title>
    <desc>Created with Sketch.</desc>
    <g id="Page-1" stroke="none" stroke-width="1" fill="none" fill-rule="evenodd">
        <g id="dribble" fill="#909090" fill-rule="nonzero">
            <path d="M43.826,33.104 C37.033,21.031 29.772,11.19 29.239,10.469 C18.283,15.646 10.107,25.737 7.557,37.9 C8.588,37.919 24.96,38.116 43.826,33.104 Z M48.719,46.301 C49.233,46.138 49.748,45.983 50.268,45.834 C49.282,43.6 48.206,41.364 47.08,39.158 C26.851,45.212 7.437,44.773 6.748,44.756 C6.736,45.169 6.717,45.581 6.717,46 C6.717,56.102 10.533,65.308 16.795,72.267 C16.783,72.254 16.768,72.233 16.768,72.233 C16.768,72.233 27.521,53.157 48.719,46.301 Z M21.855,76.969 L21.861,76.953 C21.57,76.724 21.257,76.515 20.972,76.277 C21.494,76.695 21.855,76.969 21.855,76.969 Z M36.59,7.859 C36.555,7.867 36.52,7.876 36.486,7.883 C36.547,7.868 36.583,7.862 36.583,7.862 L36.59,7.859 Z M71.945,16.518 C65.027,10.422 55.947,6.716 46,6.716 C42.809,6.716 39.713,7.107 36.744,7.823 C37.342,8.615 44.715,18.412 51.43,30.741 C66.242,25.188 71.842,16.679 71.945,16.518 Z M46,92 C20.596,92 0,71.403 0,46 C0,20.596 20.596,0 46,0 C71.406,0 92,20.596 92,46 C92,71.403 71.406,92 46,92 Z M52.684,52.429 C29.627,60.462 22.016,76.622 21.862,76.953 C28.526,82.157 36.891,85.284 46.001,85.284 C51.442,85.284 56.624,84.177 61.336,82.176 C60.754,78.732 58.469,66.7 52.944,52.341 C52.857,52.371 52.771,52.396 52.684,52.429 Z M54.451,36.594 C55.369,38.468 56.246,40.371 57.062,42.292 C57.353,42.97 57.634,43.647 57.91,44.321 C71.478,42.615 84.835,45.51 85.272,45.605 C85.179,36.282 81.849,27.736 76.337,21.045 C76.258,21.163 69.956,30.263 54.451,36.594 Z M60.305,50.523 C65.465,64.7 67.555,76.232 67.951,78.582 C76.771,72.626 83.039,63.185 84.785,52.231 C84.004,51.979 73.006,48.49 60.305,50.523 Z" id="Shape"></path>
        </g>
    </g>
</svg>
