<?xml version="1.0" encoding="UTF-8"?>
<svg width="484px" height="369px" viewBox="0 0 484 369" version="1.1" xmlns="http://www.w3.org/2000/svg" xmlns:xlink="http://www.w3.org/1999/xlink">
    <!-- Generator: Sketch 56.3 (81716) - https://sketch.com -->
    <title>envelope</title>
    <desc>Created with Sketch.</desc>
    <g id="Page-1" stroke="none" stroke-width="1" fill="none" fill-rule="evenodd">
        <g id="envelope" fill="#858585" fill-rule="nonzero">
            <path d="M424.3,0.75 L59.1,0.75 C26.5,0.75 0,27.25 0,59.85 L0,309.45 C0,342.05 26.5,368.55 59.1,368.55 L424.2,368.55 C456.8,368.55 483.300282,342.05 483.300282,309.45 L483.300282,59.95 C483.4,27.35 456.9,0.75 424.3,0.75 Z M456.4,309.45 C456.4,327.15 442,341.55 424.3,341.55 L59.1,341.55 C41.4,341.55 27,327.15 27,309.45 L27,59.95 C27,42.25 41.4,27.85 59.1,27.85 L424.2,27.85 C441.9,27.85 456.3,42.25 456.3,59.95 L456.3,309.45 L456.4,309.45 Z" id="Shape"></path>
            <path d="M304.8,181.55 L423,75.55 C428.5,70.55 429,62.05 424,56.45 C419,50.95 410.5,50.45 404.9,55.45 L241.9,201.75 L210.1,173.35 C210,173.25 209.9,173.15 209.9,173.05 C209.2,172.35 208.5,171.75 207.7,171.15 L78.3,55.35 C72.7,50.35 64.2,50.85 59.2,56.45 C54.2,62.05 54.7,70.55 60.3,75.55 L179.9,182.45 L60.8,293.95 C55.4,299.05 55.1,307.55 60.2,313.05 C62.9,315.85 66.5,317.35 70.1,317.35 C73.4,317.35 76.7,316.15 79.3,313.75 L200.2,200.65 L233,229.95 C235.6,232.25 238.8,233.35 242,233.35 C245.2,233.35 248.5,232.15 251,229.85 L284.7,199.65 L404.9,313.85 C407.5,316.35 410.9,317.55 414.2,317.55 C417.8,317.55 421.3,316.15 424,313.35 C429.1,307.95 428.9,299.35 423.5,294.25 L304.8,181.55 Z" id="Path"></path>
        </g>
    </g>
</svg>