<?xml version="1.0" encoding="UTF-8"?>
<svg width="383px" height="292px" viewBox="0 0 383 292" version="1.1" xmlns="http://www.w3.org/2000/svg" xmlns:xlink="http://www.w3.org/1999/xlink">
    <!-- Generator: Sketch 56.3 (81716) - https://sketch.com -->
    <title>Shape</title>
    <desc>Created with Sketch.</desc>
    <g id="Page-1" stroke="none" stroke-width="1" fill="none" fill-rule="evenodd">
        <g id="message-closed-envelope" fill="#858585" fill-rule="nonzero">
            <path d="M336.764,0.945 L45.354,0.945 C20.346,0.945 0,20.484 0,44.5 L0,247.617 C0,271.633 20.346,291.172 45.354,291.172 L336.764,291.172 C361.772,291.172 382.117,271.633 382.117,247.617 L382.117,44.5 C382.117,20.484 361.772,0.945 336.764,0.945 Z M336.764,252.72 L45.354,252.72 C41.678,252.72 38.454,250.336 38.454,247.617 L38.454,71.359 L170.251,182.629 C172.953,184.911 176.389,186.167 179.927,186.167 L202.186,186.168 C205.722,186.168 209.16,184.911 211.863,182.629 L343.666,71.355 L343.666,247.619 C343.666,250.336 340.439,252.72 336.764,252.72 Z M191.059,147.987 L62.87,39.397 L319.248,39.397 L191.059,147.987 Z" id="Shape"></path>
        </g>
    </g>
</svg>